<svg xmlns="http://www.w3.org/2000/svg" viewBox="0 0 960 300" width="960" height="300">
<title>Meshpunk</title>
<defs>
<linearGradient id="neon" gradientUnits="userSpaceOnUse" x1="60" y1="0" x2="250" y2="0">
<stop offset="0" stop-color="#3dff8e"/><stop offset="0.5" stop-color="#35e6c8"/><stop offset="1" stop-color="#4be1ff"/>
</linearGradient>
<radialGradient id="gm"><stop offset="0" stop-color="#3dff8e" stop-opacity="0.12"/><stop offset="1" stop-color="#3dff8e" stop-opacity="0"/></radialGradient>
<radialGradient id="gc"><stop offset="0" stop-color="#4be1ff" stop-opacity="0.10"/><stop offset="1" stop-color="#4be1ff" stop-opacity="0"/></radialGradient>
<pattern id="dots" width="22" height="22" patternUnits="userSpaceOnUse"><circle cx="11" cy="11" r="1.1" fill="#3dff8e" fill-opacity="0.12"/></pattern>
<filter id="b8" x="-80%" y="-80%" width="260%" height="260%"><feGaussianBlur stdDeviation="8"/></filter>
<filter id="b4" x="-80%" y="-80%" width="260%" height="260%"><feGaussianBlur stdDeviation="4"/></filter>
</defs>
<rect x="1" y="1" width="958" height="298" rx="20" fill="#0a0f0e" stroke="#1c2b24" stroke-width="2"/>
<rect x="1" y="1" width="958" height="298" rx="20" fill="url(#dots)"/>
<ellipse cx="155" cy="150" rx="225" ry="160" fill="url(#gm)"/>
<ellipse cx="640" cy="150" rx="380" ry="140" fill="url(#gc)"/>
<path d="M14 44 V14 H44" fill="none" stroke="#3dff8e" stroke-width="3" opacity="0.5"/>
<path d="M946 256 V286 H916" fill="none" stroke="#4be1ff" stroke-width="3" opacity="0.5"/>
<circle cx="60" cy="215" r="17" fill="#3dff8e" opacity="0.30" filter="url(#b4)"/><circle cx="60" cy="85" r="17" fill="#3dff8e" opacity="0.30" filter="url(#b4)"/><circle cx="125" cy="162" r="17" fill="#35e6c8" opacity="0.30" filter="url(#b4)"/><circle cx="190" cy="85" r="17" fill="#4be1ff" opacity="0.30" filter="url(#b4)"/><circle cx="190" cy="215" r="17" fill="#4be1ff" opacity="0.30" filter="url(#b4)"/><circle cx="250" cy="85" r="14.5" fill="#4be1ff" opacity="0.30" filter="url(#b4)"/><circle cx="250" cy="150" r="14.5" fill="#4be1ff" opacity="0.30" filter="url(#b4)"/><circle cx="190" cy="150" r="14.5" fill="#4be1ff" opacity="0.30" filter="url(#b4)"/><path d="M60 215 L60 85 L125 162 L190 85 L190 215" fill="none" stroke="url(#neon)" stroke-width="24" stroke-linecap="round" stroke-linejoin="round" opacity="0.35" filter="url(#b8)"/><path d="M190 85 L250 85 L250 150 L190 150" fill="none" stroke="url(#neon)" stroke-width="24" stroke-linecap="round" stroke-linejoin="round" opacity="0.35" filter="url(#b8)"/><line x1="60" y1="215" x2="125" y2="162" stroke="#35e6a0" stroke-width="3" stroke-linecap="round" stroke-dasharray="0.1 9" opacity="0.5"/><line x1="125" y1="162" x2="190" y2="215" stroke="#52d8e0" stroke-width="3" stroke-linecap="round" stroke-dasharray="0.1 9" opacity="0.5"/><line x1="60" y1="85" x2="190" y2="85" stroke="#9fffcf" stroke-width="3" stroke-linecap="round" stroke-dasharray="0.1 9" opacity="0.5"/><line x1="190" y1="215" x2="250" y2="150" stroke="#52d8e0" stroke-width="3" stroke-linecap="round" stroke-dasharray="0.1 9" opacity="0.5"/><path d="M60 215 L60 85 L125 162 L190 85 L190 215" fill="none" stroke="url(#neon)" stroke-width="13" stroke-linecap="round" stroke-linejoin="round"/><path d="M190 85 L250 85 L250 150 L190 150" fill="none" stroke="url(#neon)" stroke-width="13" stroke-linecap="round" stroke-linejoin="round"/><path d="M100.4 130.5 A40 40 0 0 1 149.6 130.5" fill="none" stroke="#dcffe9" stroke-width="4.5" stroke-linecap="round" opacity="0.90"/><path d="M86.8 113.1 A62 62 0 0 1 163.2 113.1" fill="none" stroke="#dcffe9" stroke-width="4.5" stroke-linecap="round" opacity="0.55"/><circle cx="60" cy="215" r="13" fill="#0a0f0e" stroke="#3dff8e" stroke-width="4.5"/><circle cx="60" cy="215" r="4" fill="#ffffff"/><circle cx="60" cy="85" r="13" fill="#0a0f0e" stroke="#3dff8e" stroke-width="4.5"/><circle cx="60" cy="85" r="4" fill="#ffffff"/><circle cx="125" cy="162" r="13" fill="#0a0f0e" stroke="#35e6c8" stroke-width="4.5"/><circle cx="125" cy="162" r="4" fill="#ffffff"/><circle cx="190" cy="85" r="13" fill="#0a0f0e" stroke="#4be1ff" stroke-width="4.5"/><circle cx="190" cy="85" r="4" fill="#ffffff"/><circle cx="190" cy="215" r="13" fill="#0a0f0e" stroke="#4be1ff" stroke-width="4.5"/><circle cx="190" cy="215" r="4" fill="#ffffff"/><circle cx="250" cy="85" r="10.5" fill="#0a0f0e" stroke="#4be1ff" stroke-width="4"/><circle cx="250" cy="85" r="3.2" fill="#ffffff"/><circle cx="250" cy="150" r="10.5" fill="#0a0f0e" stroke="#4be1ff" stroke-width="4"/><circle cx="250" cy="150" r="3.2" fill="#ffffff"/><circle cx="190" cy="150" r="10.5" fill="#0a0f0e" stroke="#4be1ff" stroke-width="4"/><circle cx="190" cy="150" r="3.2" fill="#ffffff"/>
<g fill="#3dff8e" opacity="0.4" filter="url(#b4)"><rect x="321.00" y="107.25" width="10.50" height="10.50" rx="2"/><rect x="371.00" y="107.25" width="10.50" height="10.50" rx="2"/><rect x="321.00" y="119.75" width="10.50" height="10.50" rx="2"/><rect x="333.50" y="119.75" width="10.50" height="10.50" rx="2"/><rect x="358.50" y="119.75" width="10.50" height="10.50" rx="2"/><rect x="371.00" y="119.75" width="10.50" height="10.50" rx="2"/><rect x="321.00" y="132.25" width="10.50" height="10.50" rx="2"/><rect x="346.00" y="132.25" width="10.50" height="10.50" rx="2"/><rect x="371.00" y="132.25" width="10.50" height="10.50" rx="2"/><rect x="321.00" y="144.75" width="10.50" height="10.50" rx="2"/><rect x="346.00" y="144.75" width="10.50" height="10.50" rx="2"/><rect x="371.00" y="144.75" width="10.50" height="10.50" rx="2"/><rect x="321.00" y="157.25" width="10.50" height="10.50" rx="2"/><rect x="371.00" y="157.25" width="10.50" height="10.50" rx="2"/><rect x="321.00" y="169.75" width="10.50" height="10.50" rx="2"/><rect x="371.00" y="169.75" width="10.50" height="10.50" rx="2"/><rect x="321.00" y="182.25" width="10.50" height="10.50" rx="2"/><rect x="371.00" y="182.25" width="10.50" height="10.50" rx="2"/></g><g fill="#3dff8e" opacity="0.4" filter="url(#b4)"><rect x="396.50" y="107.25" width="10.50" height="10.50" rx="2"/><rect x="409.00" y="107.25" width="10.50" height="10.50" rx="2"/><rect x="421.50" y="107.25" width="10.50" height="10.50" rx="2"/><rect x="434.00" y="107.25" width="10.50" height="10.50" rx="2"/><rect x="446.50" y="107.25" width="10.50" height="10.50" rx="2"/><rect x="396.50" y="119.75" width="10.50" height="10.50" rx="2"/><rect x="396.50" y="132.25" width="10.50" height="10.50" rx="2"/><rect x="396.50" y="144.75" width="10.50" height="10.50" rx="2"/><rect x="409.00" y="144.75" width="10.50" height="10.50" rx="2"/><rect x="421.50" y="144.75" width="10.50" height="10.50" rx="2"/><rect x="434.00" y="144.75" width="10.50" height="10.50" rx="2"/><rect x="396.50" y="157.25" width="10.50" height="10.50" rx="2"/><rect x="396.50" y="169.75" width="10.50" height="10.50" rx="2"/><rect x="396.50" y="182.25" width="10.50" height="10.50" rx="2"/><rect x="409.00" y="182.25" width="10.50" height="10.50" rx="2"/><rect x="421.50" y="182.25" width="10.50" height="10.50" rx="2"/><rect x="434.00" y="182.25" width="10.50" height="10.50" rx="2"/><rect x="446.50" y="182.25" width="10.50" height="10.50" rx="2"/></g><g fill="#3dff8e" opacity="0.4" filter="url(#b4)"><rect x="484.50" y="107.25" width="10.50" height="10.50" rx="2"/><rect x="497.00" y="107.25" width="10.50" height="10.50" rx="2"/><rect x="509.50" y="107.25" width="10.50" height="10.50" rx="2"/><rect x="522.00" y="107.25" width="10.50" height="10.50" rx="2"/><rect x="472.00" y="119.75" width="10.50" height="10.50" rx="2"/><rect x="472.00" y="132.25" width="10.50" height="10.50" rx="2"/><rect x="484.50" y="144.75" width="10.50" height="10.50" rx="2"/><rect x="497.00" y="144.75" width="10.50" height="10.50" rx="2"/><rect x="509.50" y="144.75" width="10.50" height="10.50" rx="2"/><rect x="522.00" y="157.25" width="10.50" height="10.50" rx="2"/><rect x="522.00" y="169.75" width="10.50" height="10.50" rx="2"/><rect x="472.00" y="182.25" width="10.50" height="10.50" rx="2"/><rect x="484.50" y="182.25" width="10.50" height="10.50" rx="2"/><rect x="497.00" y="182.25" width="10.50" height="10.50" rx="2"/><rect x="509.50" y="182.25" width="10.50" height="10.50" rx="2"/></g><g fill="#3dff8e" opacity="0.4" filter="url(#b4)"><rect x="547.50" y="107.25" width="10.50" height="10.50" rx="2"/><rect x="597.50" y="107.25" width="10.50" height="10.50" rx="2"/><rect x="547.50" y="119.75" width="10.50" height="10.50" rx="2"/><rect x="597.50" y="119.75" width="10.50" height="10.50" rx="2"/><rect x="547.50" y="132.25" width="10.50" height="10.50" rx="2"/><rect x="597.50" y="132.25" width="10.50" height="10.50" rx="2"/><rect x="547.50" y="144.75" width="10.50" height="10.50" rx="2"/><rect x="560.00" y="144.75" width="10.50" height="10.50" rx="2"/><rect x="572.50" y="144.75" width="10.50" height="10.50" rx="2"/><rect x="585.00" y="144.75" width="10.50" height="10.50" rx="2"/><rect x="597.50" y="144.75" width="10.50" height="10.50" rx="2"/><rect x="547.50" y="157.25" width="10.50" height="10.50" rx="2"/><rect x="597.50" y="157.25" width="10.50" height="10.50" rx="2"/><rect x="547.50" y="169.75" width="10.50" height="10.50" rx="2"/><rect x="597.50" y="169.75" width="10.50" height="10.50" rx="2"/><rect x="547.50" y="182.25" width="10.50" height="10.50" rx="2"/><rect x="597.50" y="182.25" width="10.50" height="10.50" rx="2"/></g><g fill="#4be1ff" opacity="0.4" filter="url(#b4)"><rect x="631.00" y="107.25" width="10.50" height="10.50" rx="2"/><rect x="643.50" y="107.25" width="10.50" height="10.50" rx="2"/><rect x="656.00" y="107.25" width="10.50" height="10.50" rx="2"/><rect x="668.50" y="107.25" width="10.50" height="10.50" rx="2"/><rect x="631.00" y="119.75" width="10.50" height="10.50" rx="2"/><rect x="681.00" y="119.75" width="10.50" height="10.50" rx="2"/><rect x="631.00" y="132.25" width="10.50" height="10.50" rx="2"/><rect x="681.00" y="132.25" width="10.50" height="10.50" rx="2"/><rect x="631.00" y="144.75" width="10.50" height="10.50" rx="2"/><rect x="643.50" y="144.75" width="10.50" height="10.50" rx="2"/><rect x="656.00" y="144.75" width="10.50" height="10.50" rx="2"/><rect x="668.50" y="144.75" width="10.50" height="10.50" rx="2"/><rect x="631.00" y="157.25" width="10.50" height="10.50" rx="2"/><rect x="631.00" y="169.75" width="10.50" height="10.50" rx="2"/><rect x="631.00" y="182.25" width="10.50" height="10.50" rx="2"/></g><g fill="#4be1ff" opacity="0.4" filter="url(#b4)"><rect x="706.50" y="107.25" width="10.50" height="10.50" rx="2"/><rect x="756.50" y="107.25" width="10.50" height="10.50" rx="2"/><rect x="706.50" y="119.75" width="10.50" height="10.50" rx="2"/><rect x="756.50" y="119.75" width="10.50" height="10.50" rx="2"/><rect x="706.50" y="132.25" width="10.50" height="10.50" rx="2"/><rect x="756.50" y="132.25" width="10.50" height="10.50" rx="2"/><rect x="706.50" y="144.75" width="10.50" height="10.50" rx="2"/><rect x="756.50" y="144.75" width="10.50" height="10.50" rx="2"/><rect x="706.50" y="157.25" width="10.50" height="10.50" rx="2"/><rect x="756.50" y="157.25" width="10.50" height="10.50" rx="2"/><rect x="706.50" y="169.75" width="10.50" height="10.50" rx="2"/><rect x="756.50" y="169.75" width="10.50" height="10.50" rx="2"/><rect x="719.00" y="182.25" width="10.50" height="10.50" rx="2"/><rect x="731.50" y="182.25" width="10.50" height="10.50" rx="2"/><rect x="744.00" y="182.25" width="10.50" height="10.50" rx="2"/></g><g fill="#4be1ff" opacity="0.4" filter="url(#b4)"><rect x="782.00" y="107.25" width="10.50" height="10.50" rx="2"/><rect x="832.00" y="107.25" width="10.50" height="10.50" rx="2"/><rect x="782.00" y="119.75" width="10.50" height="10.50" rx="2"/><rect x="794.50" y="119.75" width="10.50" height="10.50" rx="2"/><rect x="832.00" y="119.75" width="10.50" height="10.50" rx="2"/><rect x="782.00" y="132.25" width="10.50" height="10.50" rx="2"/><rect x="807.00" y="132.25" width="10.50" height="10.50" rx="2"/><rect x="832.00" y="132.25" width="10.50" height="10.50" rx="2"/><rect x="782.00" y="144.75" width="10.50" height="10.50" rx="2"/><rect x="819.50" y="144.75" width="10.50" height="10.50" rx="2"/><rect x="832.00" y="144.75" width="10.50" height="10.50" rx="2"/><rect x="782.00" y="157.25" width="10.50" height="10.50" rx="2"/><rect x="832.00" y="157.25" width="10.50" height="10.50" rx="2"/><rect x="782.00" y="169.75" width="10.50" height="10.50" rx="2"/><rect x="832.00" y="169.75" width="10.50" height="10.50" rx="2"/><rect x="782.00" y="182.25" width="10.50" height="10.50" rx="2"/><rect x="832.00" y="182.25" width="10.50" height="10.50" rx="2"/></g><g fill="#4be1ff" opacity="0.4" filter="url(#b4)"><rect x="857.50" y="107.25" width="10.50" height="10.50" rx="2"/><rect x="907.50" y="107.25" width="10.50" height="10.50" rx="2"/><rect x="857.50" y="119.75" width="10.50" height="10.50" rx="2"/><rect x="895.00" y="119.75" width="10.50" height="10.50" rx="2"/><rect x="857.50" y="132.25" width="10.50" height="10.50" rx="2"/><rect x="882.50" y="132.25" width="10.50" height="10.50" rx="2"/><rect x="857.50" y="144.75" width="10.50" height="10.50" rx="2"/><rect x="870.00" y="144.75" width="10.50" height="10.50" rx="2"/><rect x="857.50" y="157.25" width="10.50" height="10.50" rx="2"/><rect x="882.50" y="157.25" width="10.50" height="10.50" rx="2"/><rect x="857.50" y="169.75" width="10.50" height="10.50" rx="2"/><rect x="895.00" y="169.75" width="10.50" height="10.50" rx="2"/><rect x="857.50" y="182.25" width="10.50" height="10.50" rx="2"/><rect x="907.50" y="182.25" width="10.50" height="10.50" rx="2"/></g><g fill="#3dff8e"><rect x="321.00" y="107.25" width="10.50" height="10.50" rx="2"/><rect x="371.00" y="107.25" width="10.50" height="10.50" rx="2"/><rect x="321.00" y="119.75" width="10.50" height="10.50" rx="2"/><rect x="333.50" y="119.75" width="10.50" height="10.50" rx="2"/><rect x="358.50" y="119.75" width="10.50" height="10.50" rx="2"/><rect x="371.00" y="119.75" width="10.50" height="10.50" rx="2"/><rect x="321.00" y="132.25" width="10.50" height="10.50" rx="2"/><rect x="346.00" y="132.25" width="10.50" height="10.50" rx="2"/><rect x="371.00" y="132.25" width="10.50" height="10.50" rx="2"/><rect x="321.00" y="144.75" width="10.50" height="10.50" rx="2"/><rect x="346.00" y="144.75" width="10.50" height="10.50" rx="2"/><rect x="371.00" y="144.75" width="10.50" height="10.50" rx="2"/><rect x="321.00" y="157.25" width="10.50" height="10.50" rx="2"/><rect x="371.00" y="157.25" width="10.50" height="10.50" rx="2"/><rect x="321.00" y="169.75" width="10.50" height="10.50" rx="2"/><rect x="371.00" y="169.75" width="10.50" height="10.50" rx="2"/><rect x="321.00" y="182.25" width="10.50" height="10.50" rx="2"/><rect x="371.00" y="182.25" width="10.50" height="10.50" rx="2"/></g><g fill="#3dff8e"><rect x="396.50" y="107.25" width="10.50" height="10.50" rx="2"/><rect x="409.00" y="107.25" width="10.50" height="10.50" rx="2"/><rect x="421.50" y="107.25" width="10.50" height="10.50" rx="2"/><rect x="434.00" y="107.25" width="10.50" height="10.50" rx="2"/><rect x="446.50" y="107.25" width="10.50" height="10.50" rx="2"/><rect x="396.50" y="119.75" width="10.50" height="10.50" rx="2"/><rect x="396.50" y="132.25" width="10.50" height="10.50" rx="2"/><rect x="396.50" y="144.75" width="10.50" height="10.50" rx="2"/><rect x="409.00" y="144.75" width="10.50" height="10.50" rx="2"/><rect x="421.50" y="144.75" width="10.50" height="10.50" rx="2"/><rect x="434.00" y="144.75" width="10.50" height="10.50" rx="2"/><rect x="396.50" y="157.25" width="10.50" height="10.50" rx="2"/><rect x="396.50" y="169.75" width="10.50" height="10.50" rx="2"/><rect x="396.50" y="182.25" width="10.50" height="10.50" rx="2"/><rect x="409.00" y="182.25" width="10.50" height="10.50" rx="2"/><rect x="421.50" y="182.25" width="10.50" height="10.50" rx="2"/><rect x="434.00" y="182.25" width="10.50" height="10.50" rx="2"/><rect x="446.50" y="182.25" width="10.50" height="10.50" rx="2"/></g><g fill="#3dff8e"><rect x="484.50" y="107.25" width="10.50" height="10.50" rx="2"/><rect x="497.00" y="107.25" width="10.50" height="10.50" rx="2"/><rect x="509.50" y="107.25" width="10.50" height="10.50" rx="2"/><rect x="522.00" y="107.25" width="10.50" height="10.50" rx="2"/><rect x="472.00" y="119.75" width="10.50" height="10.50" rx="2"/><rect x="472.00" y="132.25" width="10.50" height="10.50" rx="2"/><rect x="484.50" y="144.75" width="10.50" height="10.50" rx="2"/><rect x="497.00" y="144.75" width="10.50" height="10.50" rx="2"/><rect x="509.50" y="144.75" width="10.50" height="10.50" rx="2"/><rect x="522.00" y="157.25" width="10.50" height="10.50" rx="2"/><rect x="522.00" y="169.75" width="10.50" height="10.50" rx="2"/><rect x="472.00" y="182.25" width="10.50" height="10.50" rx="2"/><rect x="484.50" y="182.25" width="10.50" height="10.50" rx="2"/><rect x="497.00" y="182.25" width="10.50" height="10.50" rx="2"/><rect x="509.50" y="182.25" width="10.50" height="10.50" rx="2"/></g><g fill="#3dff8e"><rect x="547.50" y="107.25" width="10.50" height="10.50" rx="2"/><rect x="597.50" y="107.25" width="10.50" height="10.50" rx="2"/><rect x="547.50" y="119.75" width="10.50" height="10.50" rx="2"/><rect x="597.50" y="119.75" width="10.50" height="10.50" rx="2"/><rect x="547.50" y="132.25" width="10.50" height="10.50" rx="2"/><rect x="597.50" y="132.25" width="10.50" height="10.50" rx="2"/><rect x="547.50" y="144.75" width="10.50" height="10.50" rx="2"/><rect x="560.00" y="144.75" width="10.50" height="10.50" rx="2"/><rect x="572.50" y="144.75" width="10.50" height="10.50" rx="2"/><rect x="585.00" y="144.75" width="10.50" height="10.50" rx="2"/><rect x="597.50" y="144.75" width="10.50" height="10.50" rx="2"/><rect x="547.50" y="157.25" width="10.50" height="10.50" rx="2"/><rect x="597.50" y="157.25" width="10.50" height="10.50" rx="2"/><rect x="547.50" y="169.75" width="10.50" height="10.50" rx="2"/><rect x="597.50" y="169.75" width="10.50" height="10.50" rx="2"/><rect x="547.50" y="182.25" width="10.50" height="10.50" rx="2"/><rect x="597.50" y="182.25" width="10.50" height="10.50" rx="2"/></g><g fill="#4be1ff"><rect x="631.00" y="107.25" width="10.50" height="10.50" rx="2"/><rect x="643.50" y="107.25" width="10.50" height="10.50" rx="2"/><rect x="656.00" y="107.25" width="10.50" height="10.50" rx="2"/><rect x="668.50" y="107.25" width="10.50" height="10.50" rx="2"/><rect x="631.00" y="119.75" width="10.50" height="10.50" rx="2"/><rect x="681.00" y="119.75" width="10.50" height="10.50" rx="2"/><rect x="631.00" y="132.25" width="10.50" height="10.50" rx="2"/><rect x="681.00" y="132.25" width="10.50" height="10.50" rx="2"/><rect x="631.00" y="144.75" width="10.50" height="10.50" rx="2"/><rect x="643.50" y="144.75" width="10.50" height="10.50" rx="2"/><rect x="656.00" y="144.75" width="10.50" height="10.50" rx="2"/><rect x="668.50" y="144.75" width="10.50" height="10.50" rx="2"/><rect x="631.00" y="157.25" width="10.50" height="10.50" rx="2"/><rect x="631.00" y="169.75" width="10.50" height="10.50" rx="2"/><rect x="631.00" y="182.25" width="10.50" height="10.50" rx="2"/></g><g fill="#4be1ff"><rect x="706.50" y="107.25" width="10.50" height="10.50" rx="2"/><rect x="756.50" y="107.25" width="10.50" height="10.50" rx="2"/><rect x="706.50" y="119.75" width="10.50" height="10.50" rx="2"/><rect x="756.50" y="119.75" width="10.50" height="10.50" rx="2"/><rect x="706.50" y="132.25" width="10.50" height="10.50" rx="2"/><rect x="756.50" y="132.25" width="10.50" height="10.50" rx="2"/><rect x="706.50" y="144.75" width="10.50" height="10.50" rx="2"/><rect x="756.50" y="144.75" width="10.50" height="10.50" rx="2"/><rect x="706.50" y="157.25" width="10.50" height="10.50" rx="2"/><rect x="756.50" y="157.25" width="10.50" height="10.50" rx="2"/><rect x="706.50" y="169.75" width="10.50" height="10.50" rx="2"/><rect x="756.50" y="169.75" width="10.50" height="10.50" rx="2"/><rect x="719.00" y="182.25" width="10.50" height="10.50" rx="2"/><rect x="731.50" y="182.25" width="10.50" height="10.50" rx="2"/><rect x="744.00" y="182.25" width="10.50" height="10.50" rx="2"/></g><g fill="#4be1ff"><rect x="782.00" y="107.25" width="10.50" height="10.50" rx="2"/><rect x="832.00" y="107.25" width="10.50" height="10.50" rx="2"/><rect x="782.00" y="119.75" width="10.50" height="10.50" rx="2"/><rect x="794.50" y="119.75" width="10.50" height="10.50" rx="2"/><rect x="832.00" y="119.75" width="10.50" height="10.50" rx="2"/><rect x="782.00" y="132.25" width="10.50" height="10.50" rx="2"/><rect x="807.00" y="132.25" width="10.50" height="10.50" rx="2"/><rect x="832.00" y="132.25" width="10.50" height="10.50" rx="2"/><rect x="782.00" y="144.75" width="10.50" height="10.50" rx="2"/><rect x="819.50" y="144.75" width="10.50" height="10.50" rx="2"/><rect x="832.00" y="144.75" width="10.50" height="10.50" rx="2"/><rect x="782.00" y="157.25" width="10.50" height="10.50" rx="2"/><rect x="832.00" y="157.25" width="10.50" height="10.50" rx="2"/><rect x="782.00" y="169.75" width="10.50" height="10.50" rx="2"/><rect x="832.00" y="169.75" width="10.50" height="10.50" rx="2"/><rect x="782.00" y="182.25" width="10.50" height="10.50" rx="2"/><rect x="832.00" y="182.25" width="10.50" height="10.50" rx="2"/></g><g fill="#4be1ff"><rect x="857.50" y="107.25" width="10.50" height="10.50" rx="2"/><rect x="907.50" y="107.25" width="10.50" height="10.50" rx="2"/><rect x="857.50" y="119.75" width="10.50" height="10.50" rx="2"/><rect x="895.00" y="119.75" width="10.50" height="10.50" rx="2"/><rect x="857.50" y="132.25" width="10.50" height="10.50" rx="2"/><rect x="882.50" y="132.25" width="10.50" height="10.50" rx="2"/><rect x="857.50" y="144.75" width="10.50" height="10.50" rx="2"/><rect x="870.00" y="144.75" width="10.50" height="10.50" rx="2"/><rect x="857.50" y="157.25" width="10.50" height="10.50" rx="2"/><rect x="882.50" y="157.25" width="10.50" height="10.50" rx="2"/><rect x="857.50" y="169.75" width="10.50" height="10.50" rx="2"/><rect x="895.00" y="169.75" width="10.50" height="10.50" rx="2"/><rect x="857.50" y="182.25" width="10.50" height="10.50" rx="2"/><rect x="907.50" y="182.25" width="10.50" height="10.50" rx="2"/></g>
<path d="M320 230 H700 L716 246 H898" fill="none" stroke="#3dff8e" stroke-width="2" opacity="0.4"/>
<circle cx="320" cy="230" r="3.2" fill="#3dff8e" opacity="0.8"/>
<circle cx="700" cy="230" r="2.4" fill="#3dff8e" opacity="0.6"/>
<circle cx="898" cy="246" r="3.2" fill="#ff3df0" opacity="0.9"/>
</svg>